<svg width="40" height="37" viewBox="0 0 40 37" fill="none" xmlns="http://www.w3.org/2000/svg">
<path d="M2 9.77778V5.88889C2 4.85749 2.40972 3.86834 3.13903 3.13903C3.86834 2.40972 4.85749 2 5.88889 2H33.1111C34.1425 2 35.1317 2.40972 35.861 3.13903C36.5903 3.86834 37 4.85749 37 5.88889V9.77778M2 9.77778V21.4444M2 9.77778H13.6667M37 9.77778V17.5556M37 9.77778H13.6667M2 21.4444V29.2222C2 30.2536 2.40972 31.2428 3.13903 31.9721C3.86834 32.7014 4.85749 33.1111 5.88889 33.1111H13.6667M2 21.4444H13.6667M13.6667 9.77778V21.4444M13.6667 33.1111V21.4444M13.6667 33.1111H17.5556M13.6667 21.4444H21.4444C22.4758 21.4444 23.465 21.0347 24.1943 20.3054C24.9236 19.5761 25.3333 18.587 25.3333 17.5556V9.77778" stroke="black" stroke-width="3.88889" stroke-linecap="round" stroke-linejoin="round"/>
<path d="M2.97222 5.88889C2.97222 5.11534 3.27951 4.37347 3.82649 3.82649C4.37347 3.27951 5.11534 2.97222 5.88889 2.97222H33.1111C33.8847 2.97222 34.6265 3.27951 35.1735 3.82649C35.7205 4.37348 36.0278 5.11534 36.0278 5.88889V8.80556H2.97222V5.88889Z" fill="#F5F4EF" stroke="black" stroke-width="1.94444"/>
<path d="M31.2332 23.3889V29.2222M31.2332 29.2222V35.0556M31.2332 29.2222H37.0666M31.2332 29.2222H25.3999" stroke="#3CFF00" stroke-width="3.88889" stroke-linecap="round" stroke-linejoin="round"/>
</svg>
